<svg id="visual" viewBox="0 0 900 600" width="900" height="600" xmlns="http://www.w3.org/2000/svg" xmlns:xlink="http://www.w3.org/1999/xlink" version="1.1"><rect x="0" y="0" width="900" height="600" fill="#4f4f4f"></rect><defs><linearGradient id="grad1_0" x1="33.3%" y1="0%" x2="100%" y2="100%"><stop offset="20%" stop-color="#ea94ff" stop-opacity="1"></stop><stop offset="80%" stop-color="#ea94ff" stop-opacity="1"></stop></linearGradient></defs><defs><linearGradient id="grad1_1" x1="33.3%" y1="0%" x2="100%" y2="100%"><stop offset="20%" stop-color="#ea94ff" stop-opacity="1"></stop><stop offset="80%" stop-color="#c986d9" stop-opacity="1"></stop></linearGradient></defs><defs><linearGradient id="grad1_2" x1="33.3%" y1="0%" x2="100%" y2="100%"><stop offset="20%" stop-color="#aa79b5" stop-opacity="1"></stop><stop offset="80%" stop-color="#c986d9" stop-opacity="1"></stop></linearGradient></defs><defs><linearGradient id="grad1_3" x1="33.3%" y1="0%" x2="100%" y2="100%"><stop offset="20%" stop-color="#aa79b5" stop-opacity="1"></stop><stop offset="80%" stop-color="#8b6b91" stop-opacity="1"></stop></linearGradient></defs><defs><linearGradient id="grad1_4" x1="33.3%" y1="0%" x2="100%" y2="100%"><stop offset="20%" stop-color="#6d5d6f" stop-opacity="1"></stop><stop offset="80%" stop-color="#8b6b91" stop-opacity="1"></stop></linearGradient></defs><defs><linearGradient id="grad1_5" x1="33.3%" y1="0%" x2="100%" y2="100%"><stop offset="20%" stop-color="#6d5d6f" stop-opacity="1"></stop><stop offset="80%" stop-color="#4f4f4f" stop-opacity="1"></stop></linearGradient></defs><defs><linearGradient id="grad2_0" x1="0%" y1="0%" x2="66.7%" y2="100%"><stop offset="20%" stop-color="#ea94ff" stop-opacity="1"></stop><stop offset="80%" stop-color="#ea94ff" stop-opacity="1"></stop></linearGradient></defs><defs><linearGradient id="grad2_1" x1="0%" y1="0%" x2="66.7%" y2="100%"><stop offset="20%" stop-color="#c986d9" stop-opacity="1"></stop><stop offset="80%" stop-color="#ea94ff" stop-opacity="1"></stop></linearGradient></defs><defs><linearGradient id="grad2_2" x1="0%" y1="0%" x2="66.7%" y2="100%"><stop offset="20%" stop-color="#c986d9" stop-opacity="1"></stop><stop offset="80%" stop-color="#aa79b5" stop-opacity="1"></stop></linearGradient></defs><defs><linearGradient id="grad2_3" x1="0%" y1="0%" x2="66.7%" y2="100%"><stop offset="20%" stop-color="#8b6b91" stop-opacity="1"></stop><stop offset="80%" stop-color="#aa79b5" stop-opacity="1"></stop></linearGradient></defs><defs><linearGradient id="grad2_4" x1="0%" y1="0%" x2="66.7%" y2="100%"><stop offset="20%" stop-color="#8b6b91" stop-opacity="1"></stop><stop offset="80%" stop-color="#6d5d6f" stop-opacity="1"></stop></linearGradient></defs><defs><linearGradient id="grad2_5" x1="0%" y1="0%" x2="66.7%" y2="100%"><stop offset="20%" stop-color="#4f4f4f" stop-opacity="1"></stop><stop offset="80%" stop-color="#6d5d6f" stop-opacity="1"></stop></linearGradient></defs><g transform="translate(900, 0)"><path d="M0 351.5C-15.2 338.5 -30.4 325.6 -45.4 315.8C-60.4 305.9 -75.3 299.3 -82.5 281.1C-89.8 262.9 -89.3 233.2 -110.1 241.1C-130.9 249 -173 294.5 -190.1 295.7C-207.1 296.9 -199.2 253.8 -195.1 225.2C-191.1 196.6 -190.8 182.7 -204.8 177.5C-218.8 172.3 -247.2 175.9 -265.8 170.8C-284.5 165.8 -293.4 152.2 -302 137.9C-310.6 123.7 -318.9 108.8 -315.7 92.7C-312.5 76.5 -297.8 59.1 -301.9 43.4C-306 27.7 -328.8 13.9 -351.5 0L0 0Z" fill="#5e565f"></path><path d="M0 293C-12.6 282.1 -25.3 271.3 -37.8 263.1C-50.4 255 -62.8 249.4 -68.8 234.3C-74.8 219.1 -74.4 194.3 -91.7 200.9C-109.1 207.5 -144.1 245.4 -158.4 246.4C-172.6 247.5 -166 211.5 -162.6 187.7C-159.2 163.9 -159 152.2 -170.7 147.9C-182.4 143.6 -206 146.6 -221.5 142.4C-237.1 138.2 -244.5 126.8 -251.7 114.9C-258.8 103.1 -265.7 90.7 -263.1 77.2C-260.4 63.8 -248.2 49.2 -251.6 36.2C-255 23.1 -274 11.6 -293 0L0 0Z" fill="#7c6480"></path><path d="M0 234.4C-10.1 225.7 -20.2 217 -30.3 210.5C-40.3 204 -50.2 199.6 -55 187.4C-59.8 175.3 -59.5 155.4 -73.4 160.7C-87.3 166 -115.3 196.4 -126.7 197.2C-138.1 198 -132.8 169.2 -130.1 150.1C-127.4 131.1 -127.2 121.8 -136.5 118.3C-145.9 114.8 -164.8 117.2 -177.2 113.9C-189.7 110.5 -195.6 101.4 -201.3 91.9C-207.1 82.4 -212.6 72.6 -210.4 61.8C-208.3 51 -198.6 39.4 -201.3 28.9C-204 18.5 -219.2 9.2 -234.4 0L0 0Z" fill="#9a72a3"></path><path d="M0 175.8C-7.6 169.3 -15.2 162.8 -22.7 157.9C-30.2 153 -37.7 149.7 -41.3 140.6C-44.9 131.5 -44.6 116.6 -55 120.5C-65.4 124.5 -86.5 147.3 -95 147.9C-103.6 148.5 -99.6 126.9 -97.6 112.6C-95.5 98.3 -95.4 91.3 -102.4 88.7C-109.4 86.1 -123.6 87.9 -132.9 85.4C-142.2 82.9 -146.7 76.1 -151 69C-155.3 61.8 -159.4 54.4 -157.8 46.3C-156.2 38.3 -148.9 29.5 -150.9 21.7C-153 13.9 -164.4 6.9 -175.8 0L0 0Z" fill="#b980c7"></path><path d="M0 117.2C-5.1 112.8 -10.1 108.5 -15.1 105.3C-20.1 102 -25.1 99.8 -27.5 93.7C-29.9 87.6 -29.8 77.7 -36.7 80.4C-43.6 83 -57.7 98.2 -63.4 98.6C-69 99 -66.4 84.6 -65 75.1C-63.7 65.5 -63.6 60.9 -68.3 59.2C-72.9 57.4 -82.4 58.6 -88.6 56.9C-94.8 55.3 -97.8 50.7 -100.7 46C-103.5 41.2 -106.3 36.3 -105.2 30.9C-104.2 25.5 -99.3 19.7 -100.6 14.5C-102 9.2 -109.6 4.6 -117.2 0L0 0Z" fill="#da8dec"></path><path d="M0 58.6C-2.5 56.4 -5.1 54.3 -7.6 52.6C-10.1 51 -12.6 49.9 -13.8 46.9C-15 43.8 -14.9 38.9 -18.3 40.2C-21.8 41.5 -28.8 49.1 -31.7 49.3C-34.5 49.5 -33.2 42.3 -32.5 37.5C-31.8 32.8 -31.8 30.4 -34.1 29.6C-36.5 28.7 -41.2 29.3 -44.3 28.5C-47.4 27.6 -48.9 25.4 -50.3 23C-51.8 20.6 -53.1 18.1 -52.6 15.4C-52.1 12.8 -49.6 9.8 -50.3 7.2C-51 4.6 -54.8 2.3 -58.6 0L0 0Z" fill="#ea94ff"></path></g><g transform="translate(0, 600)"><path d="M0 -351.5C14.6 -339.1 29.2 -326.6 47.2 -328.6C65.3 -330.6 86.7 -347 99 -337.3C111.4 -327.6 114.7 -291.7 127.5 -279.3C140.3 -266.8 162.6 -277.8 173 -269.2C183.4 -260.6 182.1 -232.6 188.6 -217.7C195.1 -202.7 209.6 -201 229 -198.4C248.4 -195.8 272.8 -192.4 275.1 -176.8C277.4 -161.2 257.8 -133.5 253.8 -115.9C249.8 -98.3 261.6 -91 278.3 -81.7C294.9 -72.4 316.6 -61.3 329.6 -47.4C342.6 -33.5 347.1 -16.7 351.5 0L0 0Z" fill="#5e565f"></path><path d="M0 -293C12.2 -282.6 24.4 -272.2 39.4 -273.9C54.4 -275.5 72.2 -289.2 82.5 -281.1C92.8 -273 95.6 -243.1 106.3 -232.7C116.9 -222.3 135.5 -231.5 144.2 -224.3C152.9 -217.2 151.7 -193.8 157.2 -181.4C162.6 -169 174.7 -167.5 190.8 -165.4C207 -163.2 227.3 -160.3 229.2 -147.3C231.2 -134.3 214.8 -111.2 211.5 -96.6C208.2 -82 218 -75.8 231.9 -68.1C245.8 -60.4 263.8 -51.1 274.7 -39.5C285.5 -27.9 289.2 -13.9 293 0L0 0Z" fill="#7c6480"></path><path d="M0 -234.4C9.7 -226.1 19.5 -217.8 31.5 -219.1C43.5 -220.4 57.8 -231.3 66 -224.9C74.3 -218.4 76.5 -194.5 85 -186.2C93.5 -177.9 108.4 -185.2 115.3 -179.5C122.3 -173.8 121.4 -155 125.7 -145.1C130.1 -135.2 139.7 -134 152.7 -132.3C165.6 -130.6 181.8 -128.3 183.4 -117.9C185 -107.5 171.8 -89 169.2 -77.3C166.5 -65.6 174.4 -60.6 185.5 -54.5C196.6 -48.3 211 -40.9 219.7 -31.6C228.4 -22.3 231.4 -11.2 234.4 0L0 0Z" fill="#9a72a3"></path><path d="M0 -175.8C7.3 -169.5 14.6 -163.3 23.6 -164.3C32.6 -165.3 43.3 -173.5 49.5 -168.7C55.7 -163.8 57.4 -145.9 63.8 -139.6C70.2 -133.4 81.3 -138.9 86.5 -134.6C91.7 -130.3 91 -116.3 94.3 -108.8C97.6 -101.4 104.8 -100.5 114.5 -99.2C124.2 -97.9 136.4 -96.2 137.5 -88.4C138.7 -80.6 128.9 -66.7 126.9 -58C124.9 -49.2 130.8 -45.5 139.1 -40.9C147.5 -36.2 158.3 -30.7 164.8 -23.7C171.3 -16.7 173.5 -8.4 175.8 0L0 0Z" fill="#b980c7"></path><path d="M0 -117.2C4.9 -113 9.7 -108.9 15.7 -109.5C21.8 -110.2 28.9 -115.7 33 -112.4C37.1 -109.2 38.2 -97.2 42.5 -93.1C46.8 -88.9 54.2 -92.6 57.7 -89.7C61.1 -86.9 60.7 -77.5 62.9 -72.6C65 -67.6 69.9 -67 76.3 -66.1C82.8 -65.3 90.9 -64.1 91.7 -58.9C92.5 -53.7 85.9 -44.5 84.6 -38.6C83.3 -32.8 87.2 -30.3 92.8 -27.2C98.3 -24.1 105.5 -20.4 109.9 -15.8C114.2 -11.2 115.7 -5.6 117.2 0L0 0Z" fill="#da8dec"></path><path d="M0 -58.6C2.4 -56.5 4.9 -54.4 7.9 -54.8C10.9 -55.1 14.4 -57.8 16.5 -56.2C18.6 -54.6 19.1 -48.6 21.3 -46.5C23.4 -44.5 27.1 -46.3 28.8 -44.9C30.6 -43.4 30.3 -38.8 31.4 -36.3C32.5 -33.8 34.9 -33.5 38.2 -33.1C41.4 -32.6 45.5 -32.1 45.8 -29.5C46.2 -26.9 43 -22.2 42.3 -19.3C41.6 -16.4 43.6 -15.2 46.4 -13.6C49.2 -12.1 52.8 -10.2 54.9 -7.9C57.1 -5.6 57.8 -2.8 58.6 0L0 0Z" fill="#ea94ff"></path></g></svg>