<svg id="visual" viewBox="0 0 960 540" width="960" height="540" xmlns="http://www.w3.org/2000/svg" xmlns:xlink="http://www.w3.org/1999/xlink" version="1.1"><rect x="0" y="0" width="960" height="540" fill="#4f4f4f"></rect><path d="M0 300L10.7 312.7C21.3 325.3 42.7 350.7 64 358.8C85.3 367 106.7 358 128 348.8C149.3 339.7 170.7 330.3 192 331.3C213.3 332.3 234.7 343.7 256 356C277.3 368.3 298.7 381.7 320 378.5C341.3 375.3 362.7 355.7 384 352.2C405.3 348.7 426.7 361.3 448 373C469.3 384.7 490.7 395.3 512 396.8C533.3 398.3 554.7 390.7 576 374.3C597.3 358 618.7 333 640 318.3C661.3 303.7 682.7 299.3 704 298.3C725.3 297.3 746.7 299.7 768 304.2C789.3 308.7 810.7 315.3 832 328.8C853.3 342.3 874.7 362.7 896 377.2C917.3 391.7 938.7 400.3 949.3 404.7L960 409L960 541L949.3 541C938.7 541 917.3 541 896 541C874.7 541 853.3 541 832 541C810.7 541 789.3 541 768 541C746.7 541 725.3 541 704 541C682.7 541 661.3 541 640 541C618.7 541 597.3 541 576 541C554.7 541 533.3 541 512 541C490.7 541 469.3 541 448 541C426.7 541 405.3 541 384 541C362.7 541 341.3 541 320 541C298.7 541 277.3 541 256 541C234.7 541 213.3 541 192 541C170.7 541 149.3 541 128 541C106.7 541 85.3 541 64 541C42.7 541 21.3 541 10.7 541L0 541Z" fill="#4f4f4f"></path><path d="M0 403L10.7 398.8C21.3 394.7 42.7 386.3 64 374.3C85.3 362.3 106.7 346.7 128 353.3C149.3 360 170.7 389 192 399.3C213.3 409.7 234.7 401.3 256 394.2C277.3 387 298.7 381 320 370.7C341.3 360.3 362.7 345.7 384 350.2C405.3 354.7 426.7 378.3 448 390.2C469.3 402 490.7 402 512 403C533.3 404 554.7 406 576 393.2C597.3 380.3 618.7 352.7 640 353.3C661.3 354 682.7 383 704 397.7C725.3 412.3 746.7 412.7 768 400C789.3 387.3 810.7 361.7 832 361.3C853.3 361 874.7 386 896 396.3C917.3 406.7 938.7 402.3 949.3 400.2L960 398L960 541L949.3 541C938.7 541 917.3 541 896 541C874.7 541 853.3 541 832 541C810.7 541 789.3 541 768 541C746.7 541 725.3 541 704 541C682.7 541 661.3 541 640 541C618.7 541 597.3 541 576 541C554.7 541 533.3 541 512 541C490.7 541 469.3 541 448 541C426.7 541 405.3 541 384 541C362.7 541 341.3 541 320 541C298.7 541 277.3 541 256 541C234.7 541 213.3 541 192 541C170.7 541 149.3 541 128 541C106.7 541 85.3 541 64 541C42.7 541 21.3 541 10.7 541L0 541Z" fill="#646464"></path><path d="M0 438L10.7 429.8C21.3 421.7 42.7 405.3 64 404.3C85.3 403.3 106.7 417.7 128 423.8C149.3 430 170.7 428 192 429.2C213.3 430.3 234.7 434.7 256 431C277.3 427.3 298.7 415.7 320 411C341.3 406.3 362.7 408.7 384 407C405.3 405.3 426.7 399.7 448 404.8C469.3 410 490.7 426 512 431.2C533.3 436.3 554.7 430.7 576 423C597.3 415.3 618.7 405.7 640 398.7C661.3 391.7 682.7 387.3 704 385.5C725.3 383.7 746.7 384.3 768 379.7C789.3 375 810.7 365 832 367.8C853.3 370.7 874.7 386.3 896 396.8C917.3 407.3 938.7 412.7 949.3 415.3L960 418L960 541L949.3 541C938.7 541 917.3 541 896 541C874.7 541 853.3 541 832 541C810.7 541 789.3 541 768 541C746.7 541 725.3 541 704 541C682.7 541 661.3 541 640 541C618.7 541 597.3 541 576 541C554.7 541 533.3 541 512 541C490.7 541 469.3 541 448 541C426.7 541 405.3 541 384 541C362.7 541 341.3 541 320 541C298.7 541 277.3 541 256 541C234.7 541 213.3 541 192 541C170.7 541 149.3 541 128 541C106.7 541 85.3 541 64 541C42.7 541 21.3 541 10.7 541L0 541Z" fill="#797979"></path><path d="M0 389L10.7 393.8C21.3 398.7 42.7 408.3 64 407C85.3 405.7 106.7 393.3 128 396.3C149.3 399.3 170.7 417.7 192 418.3C213.3 419 234.7 402 256 403.7C277.3 405.3 298.7 425.7 320 428.7C341.3 431.7 362.7 417.3 384 406.3C405.3 395.3 426.7 387.7 448 388C469.3 388.3 490.7 396.7 512 402.5C533.3 408.3 554.7 411.7 576 417.3C597.3 423 618.7 431 640 438.7C661.3 446.3 682.7 453.7 704 452.2C725.3 450.7 746.7 440.3 768 434.7C789.3 429 810.7 428 832 426.8C853.3 425.7 874.7 424.3 896 417.2C917.3 410 938.7 397 949.3 390.5L960 384L960 541L949.3 541C938.7 541 917.3 541 896 541C874.7 541 853.3 541 832 541C810.7 541 789.3 541 768 541C746.7 541 725.3 541 704 541C682.7 541 661.3 541 640 541C618.7 541 597.3 541 576 541C554.7 541 533.3 541 512 541C490.7 541 469.3 541 448 541C426.7 541 405.3 541 384 541C362.7 541 341.3 541 320 541C298.7 541 277.3 541 256 541C234.7 541 213.3 541 192 541C170.7 541 149.3 541 128 541C106.7 541 85.3 541 64 541C42.7 541 21.3 541 10.7 541L0 541Z" fill="#909090"></path><path d="M0 458L10.7 452.2C21.3 446.3 42.7 434.7 64 425.8C85.3 417 106.7 411 128 417C149.3 423 170.7 441 192 443.8C213.3 446.7 234.7 434.3 256 427.5C277.3 420.7 298.7 419.3 320 428C341.3 436.7 362.7 455.3 384 461.2C405.3 467 426.7 460 448 459.2C469.3 458.3 490.7 463.7 512 459.2C533.3 454.7 554.7 440.3 576 440.8C597.3 441.3 618.7 456.7 640 455.8C661.3 455 682.7 438 704 437C725.3 436 746.7 451 768 456.2C789.3 461.3 810.7 456.7 832 446.7C853.3 436.7 874.7 421.3 896 420C917.3 418.7 938.7 431.3 949.3 437.7L960 444L960 541L949.3 541C938.7 541 917.3 541 896 541C874.7 541 853.3 541 832 541C810.7 541 789.3 541 768 541C746.7 541 725.3 541 704 541C682.7 541 661.3 541 640 541C618.7 541 597.3 541 576 541C554.7 541 533.3 541 512 541C490.7 541 469.3 541 448 541C426.7 541 405.3 541 384 541C362.7 541 341.3 541 320 541C298.7 541 277.3 541 256 541C234.7 541 213.3 541 192 541C170.7 541 149.3 541 128 541C106.7 541 85.3 541 64 541C42.7 541 21.3 541 10.7 541L0 541Z" fill="#a6a6a6"></path><path d="M0 459L10.7 459.2C21.3 459.3 42.7 459.7 64 457.8C85.3 456 106.7 452 128 454.8C149.3 457.7 170.7 467.3 192 469.2C213.3 471 234.7 465 256 461.5C277.3 458 298.7 457 320 454.8C341.3 452.7 362.7 449.3 384 452.3C405.3 455.3 426.7 464.7 448 462.8C469.3 461 490.7 448 512 450.2C533.3 452.3 554.7 469.7 576 476.3C597.3 483 618.7 479 640 472.7C661.3 466.3 682.7 457.7 704 460.8C725.3 464 746.7 479 768 479.7C789.3 480.3 810.7 466.7 832 460.3C853.3 454 874.7 455 896 461.2C917.3 467.3 938.7 478.7 949.3 484.3L960 490L960 541L949.3 541C938.7 541 917.3 541 896 541C874.7 541 853.3 541 832 541C810.7 541 789.3 541 768 541C746.7 541 725.3 541 704 541C682.7 541 661.3 541 640 541C618.7 541 597.3 541 576 541C554.7 541 533.3 541 512 541C490.7 541 469.3 541 448 541C426.7 541 405.3 541 384 541C362.7 541 341.3 541 320 541C298.7 541 277.3 541 256 541C234.7 541 213.3 541 192 541C170.7 541 149.3 541 128 541C106.7 541 85.3 541 64 541C42.7 541 21.3 541 10.7 541L0 541Z" fill="#bebebe"></path><path d="M0 488L10.7 491.8C21.3 495.7 42.7 503.3 64 504C85.3 504.7 106.7 498.3 128 490.8C149.3 483.3 170.7 474.7 192 473.2C213.3 471.7 234.7 477.3 256 483.8C277.3 490.3 298.7 497.7 320 498.3C341.3 499 362.7 493 384 488.7C405.3 484.3 426.7 481.7 448 483C469.3 484.3 490.7 489.7 512 490.2C533.3 490.7 554.7 486.3 576 486.7C597.3 487 618.7 492 640 488.8C661.3 485.7 682.7 474.3 704 470.7C725.3 467 746.7 471 768 472.2C789.3 473.3 810.7 471.7 832 471.2C853.3 470.7 874.7 471.3 896 474.7C917.3 478 938.7 484 949.3 487L960 490L960 541L949.3 541C938.7 541 917.3 541 896 541C874.7 541 853.3 541 832 541C810.7 541 789.3 541 768 541C746.7 541 725.3 541 704 541C682.7 541 661.3 541 640 541C618.7 541 597.3 541 576 541C554.7 541 533.3 541 512 541C490.7 541 469.3 541 448 541C426.7 541 405.3 541 384 541C362.7 541 341.3 541 320 541C298.7 541 277.3 541 256 541C234.7 541 213.3 541 192 541C170.7 541 149.3 541 128 541C106.7 541 85.3 541 64 541C42.7 541 21.3 541 10.7 541L0 541Z" fill="#d6d6d6"></path><path d="M0 526L10.7 521C21.3 516 42.7 506 64 500C85.3 494 106.7 492 128 492.2C149.3 492.3 170.7 494.7 192 498.8C213.3 503 234.7 509 256 509C277.3 509 298.7 503 320 505.2C341.3 507.3 362.7 517.7 384 519.8C405.3 522 426.7 516 448 509.3C469.3 502.7 490.7 495.3 512 496.7C533.3 498 554.7 508 576 509.7C597.3 511.3 618.7 504.7 640 500.5C661.3 496.3 682.7 494.7 704 497.2C725.3 499.7 746.7 506.3 768 508.3C789.3 510.3 810.7 507.7 832 509.8C853.3 512 874.7 519 896 521.3C917.3 523.7 938.7 521.3 949.3 520.2L960 519L960 541L949.3 541C938.7 541 917.3 541 896 541C874.7 541 853.3 541 832 541C810.7 541 789.3 541 768 541C746.7 541 725.3 541 704 541C682.7 541 661.3 541 640 541C618.7 541 597.3 541 576 541C554.7 541 533.3 541 512 541C490.7 541 469.3 541 448 541C426.7 541 405.3 541 384 541C362.7 541 341.3 541 320 541C298.7 541 277.3 541 256 541C234.7 541 213.3 541 192 541C170.7 541 149.3 541 128 541C106.7 541 85.3 541 64 541C42.7 541 21.3 541 10.7 541L0 541Z" fill="#eeeeee"></path></svg>