<svg id="visual" viewBox="0 0 960 540" width="960" height="540" xmlns="http://www.w3.org/2000/svg" xmlns:xlink="http://www.w3.org/1999/xlink" version="1.1"><rect x="0" y="0" width="960" height="540" fill="#eeeeee"></rect><path d="M0 199L14.5 217.3C29 235.7 58 272.3 87.2 272C116.3 271.7 145.7 234.3 174.8 236.7C204 239 233 281 262 299C291 317 320 311 349 296.8C378 282.7 407 260.3 436.2 264.8C465.3 269.3 494.7 300.7 523.8 332.2C553 363.7 582 395.3 611 399.7C640 404 669 381 698 359.3C727 337.7 756 317.3 785.2 300.7C814.3 284 843.7 271 872.8 273.2C902 275.3 931 292.7 945.5 301.3L960 310L960 541L945.5 541C931 541 902 541 872.8 541C843.7 541 814.3 541 785.2 541C756 541 727 541 698 541C669 541 640 541 611 541C582 541 553 541 523.8 541C494.7 541 465.3 541 436.2 541C407 541 378 541 349 541C320 541 291 541 262 541C233 541 204 541 174.8 541C145.7 541 116.3 541 87.2 541C58 541 29 541 14.5 541L0 541Z" fill="#4f4f4f" stroke-linecap="round" stroke-linejoin="miter"></path></svg>