<svg id="visual" viewBox="0 0 960 540" width="960" height="540" xmlns="http://www.w3.org/2000/svg" xmlns:xlink="http://www.w3.org/1999/xlink" version="1.1"><rect x="0" y="0" width="960" height="540" fill="#eeeeee"></rect><path d="M0 328L10.7 329.7C21.3 331.3 42.7 334.7 64 338.2C85.3 341.7 106.7 345.3 128 346.2C149.3 347 170.7 345 192 352C213.3 359 234.7 375 256 382.8C277.3 390.7 298.7 390.3 320 383.8C341.3 377.3 362.7 364.7 384 360.3C405.3 356 426.7 360 448 354.2C469.3 348.3 490.7 332.7 512 326.8C533.3 321 554.7 325 576 324.5C597.3 324 618.7 319 640 327.3C661.3 335.7 682.7 357.3 704 363.3C725.3 369.3 746.7 359.7 768 350.8C789.3 342 810.7 334 832 331C853.3 328 874.7 330 896 336.2C917.3 342.3 938.7 352.7 949.3 357.8L960 363L960 541L949.3 541C938.7 541 917.3 541 896 541C874.7 541 853.3 541 832 541C810.7 541 789.3 541 768 541C746.7 541 725.3 541 704 541C682.7 541 661.3 541 640 541C618.7 541 597.3 541 576 541C554.7 541 533.3 541 512 541C490.7 541 469.3 541 448 541C426.7 541 405.3 541 384 541C362.7 541 341.3 541 320 541C298.7 541 277.3 541 256 541C234.7 541 213.3 541 192 541C170.7 541 149.3 541 128 541C106.7 541 85.3 541 64 541C42.7 541 21.3 541 10.7 541L0 541Z" fill="#ea94ff"></path><path d="M0 415L10.7 406.3C21.3 397.7 42.7 380.3 64 369.7C85.3 359 106.7 355 128 352C149.3 349 170.7 347 192 346.2C213.3 345.3 234.7 345.7 256 347.2C277.3 348.7 298.7 351.3 320 358.8C341.3 366.3 362.7 378.7 384 388.7C405.3 398.7 426.7 406.3 448 410.5C469.3 414.7 490.7 415.3 512 403.5C533.3 391.7 554.7 367.3 576 363.5C597.3 359.7 618.7 376.3 640 385.2C661.3 394 682.7 395 704 394.2C725.3 393.3 746.7 390.7 768 386.8C789.3 383 810.7 378 832 374.2C853.3 370.3 874.7 367.7 896 369.8C917.3 372 938.7 379 949.3 382.5L960 386L960 541L949.3 541C938.7 541 917.3 541 896 541C874.7 541 853.3 541 832 541C810.7 541 789.3 541 768 541C746.7 541 725.3 541 704 541C682.7 541 661.3 541 640 541C618.7 541 597.3 541 576 541C554.7 541 533.3 541 512 541C490.7 541 469.3 541 448 541C426.7 541 405.3 541 384 541C362.7 541 341.3 541 320 541C298.7 541 277.3 541 256 541C234.7 541 213.3 541 192 541C170.7 541 149.3 541 128 541C106.7 541 85.3 541 64 541C42.7 541 21.3 541 10.7 541L0 541Z" fill="#cf89e0"></path><path d="M0 421L10.7 421.3C21.3 421.7 42.7 422.3 64 422.8C85.3 423.3 106.7 423.7 128 423C149.3 422.3 170.7 420.7 192 420.2C213.3 419.7 234.7 420.3 256 414.5C277.3 408.7 298.7 396.3 320 398C341.3 399.7 362.7 415.3 384 421.2C405.3 427 426.7 423 448 418.3C469.3 413.7 490.7 408.3 512 408C533.3 407.7 554.7 412.3 576 413.3C597.3 414.3 618.7 411.7 640 411.3C661.3 411 682.7 413 704 412.2C725.3 411.3 746.7 407.7 768 403.5C789.3 399.3 810.7 394.7 832 396.3C853.3 398 874.7 406 896 403C917.3 400 938.7 386 949.3 379L960 372L960 541L949.3 541C938.7 541 917.3 541 896 541C874.7 541 853.3 541 832 541C810.7 541 789.3 541 768 541C746.7 541 725.3 541 704 541C682.7 541 661.3 541 640 541C618.7 541 597.3 541 576 541C554.7 541 533.3 541 512 541C490.7 541 469.3 541 448 541C426.7 541 405.3 541 384 541C362.7 541 341.3 541 320 541C298.7 541 277.3 541 256 541C234.7 541 213.3 541 192 541C170.7 541 149.3 541 128 541C106.7 541 85.3 541 64 541C42.7 541 21.3 541 10.7 541L0 541Z" fill="#b47dc1"></path><path d="M0 441L10.7 436.7C21.3 432.3 42.7 423.7 64 417C85.3 410.3 106.7 405.7 128 403.5C149.3 401.3 170.7 401.7 192 402.2C213.3 402.7 234.7 403.3 256 412.3C277.3 421.3 298.7 438.7 320 441C341.3 443.3 362.7 430.7 384 423.5C405.3 416.3 426.7 414.7 448 415.8C469.3 417 490.7 421 512 422.5C533.3 424 554.7 423 576 423.5C597.3 424 618.7 426 640 427.5C661.3 429 682.7 430 704 435C725.3 440 746.7 449 768 453.7C789.3 458.3 810.7 458.7 832 456.8C853.3 455 874.7 451 896 441.5C917.3 432 938.7 417 949.3 409.5L960 402L960 541L949.3 541C938.7 541 917.3 541 896 541C874.7 541 853.3 541 832 541C810.7 541 789.3 541 768 541C746.7 541 725.3 541 704 541C682.7 541 661.3 541 640 541C618.7 541 597.3 541 576 541C554.7 541 533.3 541 512 541C490.7 541 469.3 541 448 541C426.7 541 405.3 541 384 541C362.7 541 341.3 541 320 541C298.7 541 277.3 541 256 541C234.7 541 213.3 541 192 541C170.7 541 149.3 541 128 541C106.7 541 85.3 541 64 541C42.7 541 21.3 541 10.7 541L0 541Z" fill="#9a72a3"></path><path d="M0 456L10.7 451.7C21.3 447.3 42.7 438.7 64 434.5C85.3 430.3 106.7 430.7 128 434C149.3 437.3 170.7 443.7 192 445.2C213.3 446.7 234.7 443.3 256 447.2C277.3 451 298.7 462 320 463.7C341.3 465.3 362.7 457.7 384 456.3C405.3 455 426.7 460 448 459.7C469.3 459.3 490.7 453.7 512 455.5C533.3 457.3 554.7 466.7 576 470.3C597.3 474 618.7 472 640 467.8C661.3 463.7 682.7 457.3 704 450.7C725.3 444 746.7 437 768 434.3C789.3 431.7 810.7 433.3 832 435.3C853.3 437.3 874.7 439.7 896 439.8C917.3 440 938.7 438 949.3 437L960 436L960 541L949.3 541C938.7 541 917.3 541 896 541C874.7 541 853.3 541 832 541C810.7 541 789.3 541 768 541C746.7 541 725.3 541 704 541C682.7 541 661.3 541 640 541C618.7 541 597.3 541 576 541C554.7 541 533.3 541 512 541C490.7 541 469.3 541 448 541C426.7 541 405.3 541 384 541C362.7 541 341.3 541 320 541C298.7 541 277.3 541 256 541C234.7 541 213.3 541 192 541C170.7 541 149.3 541 128 541C106.7 541 85.3 541 64 541C42.7 541 21.3 541 10.7 541L0 541Z" fill="#806686"></path><path d="M0 484L10.7 485.5C21.3 487 42.7 490 64 491.5C85.3 493 106.7 493 128 490.2C149.3 487.3 170.7 481.7 192 476.8C213.3 472 234.7 468 256 470.3C277.3 472.7 298.7 481.3 320 486.8C341.3 492.3 362.7 494.7 384 491.5C405.3 488.3 426.7 479.7 448 479.7C469.3 479.7 490.7 488.3 512 486.5C533.3 484.7 554.7 472.3 576 467.2C597.3 462 618.7 464 640 468C661.3 472 682.7 478 704 481.5C725.3 485 746.7 486 768 487.5C789.3 489 810.7 491 832 492C853.3 493 874.7 493 896 492.8C917.3 492.7 938.7 492.3 949.3 492.2L960 492L960 541L949.3 541C938.7 541 917.3 541 896 541C874.7 541 853.3 541 832 541C810.7 541 789.3 541 768 541C746.7 541 725.3 541 704 541C682.7 541 661.3 541 640 541C618.7 541 597.3 541 576 541C554.7 541 533.3 541 512 541C490.7 541 469.3 541 448 541C426.7 541 405.3 541 384 541C362.7 541 341.3 541 320 541C298.7 541 277.3 541 256 541C234.7 541 213.3 541 192 541C170.7 541 149.3 541 128 541C106.7 541 85.3 541 64 541C42.7 541 21.3 541 10.7 541L0 541Z" fill="#685b6a"></path><path d="M0 516L10.7 513.8C21.3 511.7 42.7 507.3 64 507.8C85.3 508.3 106.7 513.7 128 514.8C149.3 516 170.7 513 192 509.2C213.3 505.3 234.7 500.7 256 501.7C277.3 502.7 298.7 509.3 320 511.8C341.3 514.3 362.7 512.7 384 509.7C405.3 506.7 426.7 502.3 448 502.2C469.3 502 490.7 506 512 509.8C533.3 513.7 554.7 517.3 576 516C597.3 514.7 618.7 508.3 640 504.5C661.3 500.7 682.7 499.3 704 500.5C725.3 501.7 746.7 505.3 768 507.3C789.3 509.3 810.7 509.7 832 509C853.3 508.3 874.7 506.7 896 507.2C917.3 507.7 938.7 510.3 949.3 511.7L960 513L960 541L949.3 541C938.7 541 917.3 541 896 541C874.7 541 853.3 541 832 541C810.7 541 789.3 541 768 541C746.7 541 725.3 541 704 541C682.7 541 661.3 541 640 541C618.7 541 597.3 541 576 541C554.7 541 533.3 541 512 541C490.7 541 469.3 541 448 541C426.7 541 405.3 541 384 541C362.7 541 341.3 541 320 541C298.7 541 277.3 541 256 541C234.7 541 213.3 541 192 541C170.7 541 149.3 541 128 541C106.7 541 85.3 541 64 541C42.7 541 21.3 541 10.7 541L0 541Z" fill="#4f4f4f"></path></svg>